<svg height="154.30335" viewBox="0 0 38.765592 9.1791133" width="648.07407" xmlns="http://www.w3.org/2000/svg" xmlns:xlink="http://www.w3.org/1999/xlink"><symbol id="a" overflow="visible"/><symbol id="b" overflow="visible"/><g transform="translate(-279.11652 -453.88748)"><g fill="#f58c0f"><path d="m310.54406 455.16906h-1.44556l-2.45291 4.89203-2.44602-4.89203h-1.42076c1.53376 3.06751 3.88056 7.76524 3.88056 7.76524"/><path d="m299.33923 461.43913c-1.19752 0-2.20624-.8282-2.48185-1.94028h6.27008v-.61598c0-2.08773-1.69913-3.78685-3.78823-3.78685-2.08773 0-3.78823 1.69912-3.78823 3.78685s1.7005 3.78823 3.78823 3.78823c1.43591 0 2.7106-.79789 3.35277-2.02296h-1.50207c-.46991.49195-1.12999.79099-1.8507.79099m0-5.11252c1.19751 0 2.20624.8282 2.48185 1.94166h-4.9637c.27561-1.11346 1.28433-1.94166 2.48185-1.94166"/><path d="m317.74982 458.91043c0-.0124-.003-.0276-.003-.0413v-3.67936h-1.23059v.93293c-.67524-.61874-1.57097-.99908-2.55626-.99908-2.08773 0-3.78823 1.69912-3.78823 3.78685 0 2.0891 1.7005 3.78823 3.78823 3.78823.98529 0 1.88102-.38172 2.55626-1.00046v.9412h1.23059v-3.68625c0-.0138.003-.0276.003-.0427m-3.78961 2.55764c-1.40973 0-2.55763-1.14791-2.55763-2.55764s1.1479-2.55488 2.55763-2.55488c1.39734 0 2.53284 1.1231 2.55626 2.51354v.0841c-.0234 1.39044-1.15892 2.51492-2.55626 2.51492"/><path d="m290.93182 461.43913c-1.1989 0-2.20624-.8282-2.48323-1.94028h6.27146v-.61598c0-2.08773-1.7005-3.78685-3.78823-3.78685-2.08911 0-3.78823 1.69912-3.78823 3.78685s1.69912 3.78823 3.78823 3.78823c1.43454 0 2.7106-.79789 3.35139-2.02296h-1.50206c-.46854.49195-1.13.79099-1.84933.79099m0-5.11252c1.19751 0 2.20486.8282 2.48184 1.94166h-4.96507c.27699-1.11346 1.28433-1.94166 2.48323-1.94166"/><path d="m279.24881 454.01977h1.52135l2.89664 5.81946 2.87597-5.81946h1.49241l-4.38492 8.90213"/></g><path d="m281.66451 454.03493 1.98024 3.95084 1.97749-3.95084s-3.95773-.005-3.95773 0" fill="#85858a"/><g fill="#f58c0f" transform="matrix(.35277778 0 0 .35277778 263.37381 207.3468)"><use height="100%" width="100%" x="271.66199" xlink:href="#a" y="349.785"/><use height="100%" width="100%" x="276.48001" xlink:href="#a" y="349.785"/></g><use fill="#fff" height="100%" transform="matrix(.35277778 0 0 .35277778 263.37381 207.3468)" width="100%" x="549.00299" xlink:href="#b" y="349.785"/></g></svg>